PathFileType	4	(X/Y/Z)	RBDS001static.trc
DataRate	CameraRate	NumFrames	NumMarkers	Units	OrigDataRate	OrigDataStartFrame	OrigNumFrames
150.000000	150.000000	4	48	mm	150.000000	75	150
Frame#	Time	L.Ankle			L.Ankle.Medial			L.ASIS			L.GTR			L.Heel.Bottom			L.Heel.Lateral			L.Heel.Top			L.HF			L.Iliac.Crest			L.Knee			L.Knee.Medial			L.MT1			L.MT2			L.MT5			L.PSIS			L.Shank.Bottom.Lateral			L.Shank.Bottom.Medial			L.Shank.Top.Lateral			L.Shank.Top.Medial			L.Thigh.Bottom.Lateral			L.Thigh.Bottom.Medial			L.Thigh.Top.Lateral			L.Thigh.Top.Medial			L.TT			R.Ankle			R.Ankle.Medial			R.ASIS			R.GTR			R.Heel.Bottom			R.Heel.Lateral			R.Heel.Top			R.HF			R.Iliac.Crest			R.Knee			R.Knee.Medial			R.MT1			R.MT2			R.MT5			R.PSIS			R.Shank.Bottom.Lateral			R.Shank.Bottom.Medial			R.Shank.Top.Lateral			R.Shank.Top.Medial			R.Thigh.Bottom.Lateral			R.Thigh.Bottom.Medial			R.Thigh.Top.Lateral			R.Thigh.Top.Medial			R.TT			
		X1	Y1	Z1	X2	Y2	Z2	X3	Y3	Z3	X4	Y4	Z4	X5	Y5	Z5	X6	Y6	Z6	X7	Y7	Z7	X8	Y8	Z8	X9	Y9	Z9	X10	Y10	Z10	X11	Y11	Z11	X12	Y12	Z12	X13	Y13	Z13	X14	Y14	Z14	X15	Y15	Z15	X16	Y16	Z16	X17	Y17	Z17	X18	Y18	Z18	X19	Y19	Z19	X20	Y20	Z20	X21	Y21	Z21	X22	Y22	Z22	X23	Y23	Z23	X24	Y24	Z24	X25	Y25	Z25	X26	Y26	Z26	X27	Y27	Z27	X28	Y28	Z28	X29	Y29	Z29	X30	Y30	Z30	X31	Y31	Z31	X32	Y32	Z32	X33	Y33	Z33	X34	Y34	Z34	X35	Y35	Z35	X36	Y36	Z36	X37	Y37	Z37	X38	Y38	Z38	X39	Y39	Z39	X40	Y40	Z40	X41	Y41	Z41	X42	Y42	Z42	X43	Y43	Z43	X44	Y44	Z44	X45	Y45	Z45	X46	Y46	Z46	X47	Y47	Z47	X48	Y48	Z48	

76	0.5	705.0728149414063	108.8207702636719	1050.995727539063	725.59228515625	119.3016891479492	1129.078491210938	878.2861328125	1067.260620117188	1126.733642578125	800.4609375	965.5087280273438	1056.814819335938	633.319091796875	43.04551696777344	1085.160766601563	663.4302978515625	60.41702270507813	1046.807861328125	641.8211059570313	90.55152893066406	1088.88330078125	734.61474609375	490.522705078125	1039.991088867188	817.104736328125	1135.295776367188	1090.207641601563	752.2774047851563	550.6011352539063	1052.354370117188	732.6513671875	539.875	1162.283935546875	854.9423217773438	62.80431747436523	1133.437744140625	861.0341796875	69.69187927246094	1088.608154296875	827.09375	56.57512664794922	1026.68603515625	700.698486328125	1099.059204101563	1181.921142578125	713.437255859375	191.6684875488281	1043.614501953125	670.5206909179688	190.7560729980469	1072.017822265625	708.9127807617188	271.4801940917969	1031.513671875	665.5980834960938	274.8175354003906	1063.4306640625	743.4014282226563	675.5767211914063	1043.29443359375	690.38720703125	678.3021850585938	1093.954345703125	741.347412109375	786.3010864257813	1040.408081054688	696.5389404296875	788.9677734375	1093.36669921875	786.2246704101563	461.6275939941406	1091.882446289063	701.744140625	110.647705078125	1397.620849609375	720.0170288085938	116.6492080688477	1314.726928710938	857.2161865234375	1060.494140625	1337.213256835938	763.2786254882813	966.5939331054688	1385.047729492188	627.4971923828125	42.60735321044922	1360.103881835938	658.3843994140625	58.94325637817383	1403.311401367188	638.9242553710938	90.76063537597656	1359.640502929688	732.0254516601563	491.4684143066406	1397.842407226563	794.4306030273438	1135.562133789063	1358.842529296875	735.0333251953125	553.269287109375	1387.113159179688	731.267333984375	540.0850830078125	1270.909423828125	850.1946411132813	64.40616607666016	1319.650390625	855.0902099609375	73.13148498535156	1362.035034179688	829.7290649414063	56.36439514160156	1427.125854492188	697.1478271484375	1097.8623046875	1258.700561523438	702.312744140625	190.5129852294922	1400.8095703125	660.8978271484375	194.3129730224609	1364.966918945313	698.71240234375	271.2505493164063	1410.819091796875	658.9718627929688	273.925048828125	1373.847534179688	734.8466796875	651.183837890625	1396.767578125	680.4244995117188	650.58447265625	1346.22265625	727.0402221679688	761.7843017578125	1399.214599609375	678.3104248046875	760.523681640625	1348.64013671875	781.2845458984375	462.5564575195313	1343.845581054688	
77	0.5066666666666667	705.0781860351563	108.8313980102539	1050.995483398438	725.591552734375	119.3009872436523	1129.070434570313	878.326171875	1067.254516601563	1126.7470703125	800.4995727539063	965.5083618164063	1056.837280273438	633.3162841796875	43.0474967956543	1085.149047851563	663.4254150390625	60.41300964355469	1046.810546875	641.82861328125	90.5521240234375	1088.877563476563	734.5076904296875	490.47119140625	1040.047729492188	817.140625	1135.282104492188	1090.217651367188	752.2882080078125	550.6026000976563	1052.359619140625	732.6638793945313	539.8806762695313	1162.295776367188	854.9490356445313	62.80191802978516	1133.438842773438	861.0365600585938	69.68976593017578	1088.611328125	827.0974731445313	56.58191299438477	1026.691162109375	700.7421264648438	1099.053955078125	1181.918212890625	713.4365844726563	191.6729888916016	1043.620239257813	670.52392578125	190.7607269287109	1072.014282226563	708.9117431640625	271.4815063476563	1031.507202148438	665.6199340820313	274.8231201171875	1063.428100585938	743.4302978515625	675.570556640625	1043.304077148438	690.4147338867188	678.2966918945313	1093.967163085938	741.3831787109375	786.2947998046875	1040.420166015625	696.5660400390625	788.9705810546875	1093.375244140625	786.2445678710938	461.6370849609375	1091.900390625	701.744140625	110.6548919677734	1397.6171875	720.0127563476563	116.6477584838867	1314.724853515625	857.2398071289063	1060.48828125	1337.245483398438	763.3057861328125	966.5996704101563	1385.078491210938	627.4990844726563	42.60960006713867	1360.103393554688	658.3795776367188	58.95003509521484	1403.313232421875	638.9224243164063	90.76510620117188	1359.645874023438	732.0466918945313	491.4718322753906	1397.8486328125	794.458740234375	1135.571533203125	1358.861083984375	735.0408935546875	553.2701416015625	1387.118041992188	731.2910766601563	540.0765991210938	1270.912719726563	850.1925659179688	64.40921783447266	1319.657104492188	855.09619140625	73.13182067871094	1362.035522460938	829.7342529296875	56.36957168579102	1427.127197265625	697.17822265625	1097.87353515625	1258.708740234375	702.313720703125	190.5307312011719	1400.804321289063	660.8970336914063	194.3185577392578	1364.953979492188	698.7124633789063	271.254150390625	1410.816284179688	658.980712890625	273.9180297851563	1373.841552734375	734.8713989257813	651.1819458007813	1396.774291992188	680.4446411132813	650.5831298828125	1346.235107421875	727.0584106445313	761.7844848632813	1399.2177734375	678.3329467773438	760.5311279296875	1348.649047851563	781.2952270507813	462.5505676269531	1343.850708007813	
78	0.5133333333333334	705.082275390625	108.8253479003906	1050.997314453125	725.5858764648438	119.3095245361328	1129.076416015625	878.3621826171875	1067.237670898438	1126.772705078125	800.54931640625	965.5110473632813	1056.865844726563	633.3193359375	43.04866027832031	1085.15087890625	663.431396484375	60.40818786621094	1046.8076171875	641.8252563476563	90.55119323730469	1088.884033203125	734.5303955078125	490.4772644042969	1040.056762695313	817.1821899414063	1135.266723632813	1090.23974609375	752.3224487304688	550.5831909179688	1052.3779296875	732.681640625	539.8751220703125	1162.312133789063	854.9437866210938	62.79639434814453	1133.447998046875	861.038330078125	69.68772888183594	1088.61376953125	827.0991821289063	56.57544326782227	1026.694458007813	700.7823486328125	1099.0517578125	1181.928344726563	713.4482421875	191.6666870117188	1043.625732421875	670.5271606445313	190.7678527832031	1072.00537109375	708.9310913085938	271.4791259765625	1031.52197265625	665.6260986328125	274.8224487304688	1063.430786132813	743.4628295898438	675.56591796875	1043.3173828125	690.4425048828125	678.2970581054688	1093.9873046875	741.4238891601563	786.2868041992188	1040.439331054688	696.5953369140625	788.9639892578125	1093.38671875	786.2683715820313	461.632568359375	1091.90576171875	701.748291015625	110.6548156738281	1397.616088867188	720.02880859375	116.6456298828125	1314.734252929688	857.2637939453125	1060.48779296875	1337.267456054688	763.3275146484375	966.5927734375	1385.098999023438	627.5028686523438	42.60328674316406	1360.1025390625	658.3814697265625	58.94186401367188	1403.307739257813	638.9265747070313	90.76431274414063	1359.6435546875	732.0480346679688	491.4630126953125	1397.849609375	794.4891357421875	1135.568237304688	1358.892944335938	735.0548706054688	553.2766723632813	1387.140625	731.3004150390625	540.084716796875	1270.918334960938	850.2000732421875	64.40461730957031	1319.656005859375	855.093505859375	73.12797546386719	1362.038940429688	829.730712890625	56.35819244384766	1427.122192382813	697.2174072265625	1097.860229492188	1258.733154296875	702.3202514648438	190.523681640625	1400.804565429688	660.904541015625	194.318359375	1364.963012695313	698.7197875976563	271.24853515625	1410.809814453125	658.9808959960938	273.9192810058594	1373.839721679688	734.8834838867188	651.186767578125	1396.78173828125	680.4688720703125	650.5768432617188	1346.230834960938	727.07470703125	761.7857055664063	1399.228515625	678.3467407226563	760.5321655273438	1348.64453125	781.317626953125	462.5516967773438	1343.852294921875	
79	0.52	705.0907592773438	108.823356628418	1050.998046875	725.5926513671875	119.2933959960938	1129.084716796875	878.40771484375	1067.236083984375	1126.794067382813	800.5939331054688	965.5075073242188	1056.892700195313	633.3193359375	43.04708862304688	1085.1611328125	663.4327392578125	60.40946960449219	1046.808349609375	641.8297729492188	90.55220794677734	1088.880126953125	734.5512084960938	490.4736328125	1040.062255859375	817.2171020507813	1135.2548828125	1090.249389648438	752.3322143554688	550.603271484375	1052.37890625	732.7025756835938	539.866943359375	1162.319580078125	854.9510498046875	62.80803298950195	1133.443481445313	861.0353393554688	69.68853759765625	1088.6123046875	827.0983276367188	56.58204650878906	1026.687622070313	700.8298950195313	1099.048217773438	1181.94189453125	713.4549560546875	191.6725158691406	1043.631469726563	670.5346069335938	190.7607727050781	1072.011596679688	708.94482421875	271.4841003417969	1031.529296875	665.6356201171875	274.8252563476563	1063.436401367188	743.5025024414063	675.5651245117188	1043.326416015625	690.480224609375	678.2974243164063	1093.988891601563	741.4523315429688	786.2887573242188	1040.442016601563	696.6287231445313	788.9651489257813	1093.40185546875	786.278076171875	461.629638671875	1091.91748046875	701.7503662109375	110.6538925170898	1397.621215820313	720.02392578125	116.64453125	1314.731079101563	857.2957763671875	1060.484741210938	1337.284057617188	763.3463134765625	966.5968017578125	1385.11865234375	627.509521484375	42.59639739990234	1360.104248046875	658.3781127929688	58.94971084594727	1403.310668945313	638.9339599609375	90.76107025146484	1359.641845703125	732.0604858398438	491.4637451171875	1397.84619140625	794.5144653320313	1135.57177734375	1358.908081054688	735.0718383789063	553.2716064453125	1387.136108398438	731.3554077148438	540.0763549804688	1270.926025390625	850.1951904296875	64.40359497070313	1319.656005859375	855.0901489257813	73.12845611572266	1362.037841796875	829.73046875	56.36905670166016	1427.133666992188	697.2516479492188	1097.859252929688	1258.743041992188	702.319580078125	190.5200653076172	1400.802368164063	660.9032592773438	194.318359375	1364.953857421875	698.7179565429688	271.254150390625	1410.812622070313	658.9899291992188	273.9246826171875	1373.84423828125	734.8897705078125	651.1864013671875	1396.797241210938	680.4818725585938	650.5836791992188	1346.231201171875	727.092041015625	761.7818603515625	1399.235717773438	678.3634643554688	760.5326538085938	1348.657348632813	781.3295288085938	462.5465393066406	1343.860961914063	
